<svg width="51" height="54" viewBox="0 0 51 54" fill="none" xmlns="http://www.w3.org/2000/svg">
<path d="M30.6286 28.7624C32.4826 28.7978 34.0144 27.3236 34.0499 25.4696M35.322 43.5394C35.6002 41.5302 34.572 39.5621 32.7154 38.8352M31.6237 30.8236C31.6237 29.3699 30.4454 28.1915 28.9918 28.1915M28.9918 42.5194C28.9918 41.4215 28.1018 40.5314 27.004 40.5314C25.9062 40.5314 25.0161 41.4215 25.0161 42.5194M25.0161 42.5194V44.5072M25.0161 42.5194C25.0161 41.4215 24.126 40.5314 23.0282 40.5314C21.9303 40.5314 21.0404 41.4215 21.0404 42.5194M32.5592 35.0898C31.2326 34.6928 29.8353 35.4465 29.4384 36.773M30.6245 35.2995C30.3492 34.6168 29.7773 34.061 29.0171 33.8334M28.029 25.2252C26.9788 24.6113 25.6297 24.9651 25.016 26.0154C24.4022 24.9651 23.0532 24.6113 22.0029 25.2252M19.4034 28.7624C17.5494 28.7978 16.0176 27.3236 15.9822 25.4696M14.7099 43.5394C14.4317 41.5302 15.46 39.5621 17.3166 38.8352M18.4083 30.8235C18.4083 29.3699 19.5867 28.1915 21.0404 28.1915M17.4727 35.0898C18.7993 34.6928 20.1966 35.4465 20.5935 36.773M19.4078 35.2995C19.6831 34.6168 20.2551 34.061 21.015 33.8334M30.9145 7.01923H34.1704C35.434 7.01923 36.4584 5.99483 36.4584 4.73114V3.0387C36.4584 1.77501 35.434 0.75061 34.1704 0.75061H15.8617C14.598 0.75061 13.5736 1.77501 13.5736 3.0387V4.73114C13.5736 5.99483 14.598 7.01923 15.8617 7.01923H27.2791M32.9532 7.01934V12.1282C32.9532 13.2009 33.2592 14.2512 33.8354 15.1558L47.6798 36.8968C51.9717 43.6367 47.1303 52.4595 39.1399 52.4595H10.8927C2.90225 52.4595 -1.93917 43.6367 2.35281 36.8968L16.1972 15.1558C16.7733 14.2511 17.0793 13.2009 17.0793 12.1282V7.01934M25.016 22.5343C25.016 21.2173 26.0391 20.1003 27.3549 20.046C27.3926 20.0444 27.4306 20.0436 27.4688 20.0436C28.6291 20.0436 29.604 20.7722 29.8836 21.759C29.9681 22.0575 30.2686 22.2609 30.6038 22.2606H30.6104C32.511 22.2606 34.0518 23.6782 34.0518 25.4269C34.0518 25.5969 34.0371 25.7637 34.0089 25.9263C33.9555 26.2341 34.1284 26.5391 34.4411 26.6588C35.8579 27.2008 36.8543 28.4857 36.8543 29.9856C36.8543 30.4517 36.758 30.8971 36.5829 31.306C36.4812 31.5432 36.5321 31.8141 36.7198 32.0017C37.4083 32.6901 37.8293 33.6083 37.8293 34.6175C37.8293 35.5339 37.4823 36.3755 36.903 37.038C36.7198 37.2475 36.6882 37.535 36.8227 37.7737C37.1224 38.3058 37.261 38.9108 37.2924 39.5511C37.3567 40.8662 36.4838 41.8774 35.8959 42.4044C35.5822 42.6858 35.3922 43.0592 35.3333 43.4585C34.9892 45.7926 32.8147 47.5915 30.1835 47.5915C30.0065 47.5915 29.8316 47.5829 29.6592 47.5667C29.5233 47.554 29.3872 47.5776 29.2642 47.6322C28.8724 47.8066 28.4333 47.9048 27.9688 47.9048C26.7549 47.9048 25.7108 47.2373 25.2455 46.2796C25.0878 45.9551 25.016 45.5955 25.016 45.2348M25.016 22.5343V45.2348M25.016 22.5343C25.016 21.2173 23.993 20.1003 22.6772 20.046C22.6394 20.0444 22.6015 20.0436 22.5633 20.0436C21.403 20.0436 20.4281 20.7722 20.1485 21.759C20.064 22.0575 19.7636 22.2609 19.4284 22.2606H19.4217C17.5212 22.2606 15.9803 23.6782 15.9803 25.4269C15.9803 25.5969 15.9951 25.7637 16.0232 25.9263C16.0766 26.234 15.9037 26.5391 15.5909 26.6587C14.1742 27.2008 13.1779 28.4857 13.1779 29.9856C13.1779 30.4517 13.2741 30.8971 13.4492 31.306C13.5509 31.5432 13.5 31.8141 13.3123 32.0017C12.6238 32.69 12.2028 33.6083 12.2028 34.6175C12.2028 35.5339 12.5499 36.3755 13.1291 37.0379C13.3123 37.2475 13.344 37.535 13.2095 37.7737C12.9097 38.3058 12.7711 38.9108 12.7398 39.5511C12.6754 40.8662 13.5483 41.8773 14.1362 42.4044C14.4499 42.6857 14.64 43.0592 14.6988 43.4585C14.7489 43.7985 14.8379 44.1271 14.9614 44.4405M25.016 45.2348C25.016 45.5956 24.9443 45.9552 24.7866 46.2796C24.3213 47.2373 23.2772 47.9048 22.0633 47.9048C21.5988 47.9048 21.1597 47.8066 20.7679 47.6323C20.6449 47.5776 20.5088 47.554 20.3729 47.5667C20.2005 47.5829 20.0256 47.5915 19.8486 47.5915C18.9943 47.5915 18.1883 47.402 17.4774 47.066" stroke="#CC0033" stroke-width="1.50128" stroke-miterlimit="10" stroke-linecap="round" stroke-linejoin="round"/>
</svg>
