<svg xmlns="http://www.w3.org/2000/svg" width="48" height="48" viewBox="0 0 48 48">
  <path id="apartment_24dp_5F6368_FILL1_wght400_GRAD0_opsz24" d="M125.333-792a5.136,5.136,0,0,1-3.767-1.567A5.136,5.136,0,0,1,120-797.333V-824a5.136,5.136,0,0,1,1.567-3.767,5.136,5.136,0,0,1,3.767-1.567h5.333v-5.333a5.136,5.136,0,0,1,1.567-3.767A5.136,5.136,0,0,1,136-840h16a5.136,5.136,0,0,1,3.767,1.567,5.136,5.136,0,0,1,1.567,3.767v16h5.333a5.135,5.135,0,0,1,3.767,1.567A5.135,5.135,0,0,1,168-813.333v16a5.136,5.136,0,0,1-1.567,3.767A5.136,5.136,0,0,1,162.667-792h-16v-10.667h-5.333V-792Zm0-5.333h5.333v-5.333h-5.333Zm0-10.667h5.333v-5.333h-5.333Zm0-10.667h5.333V-824h-5.333ZM136-808h5.333v-5.333H136Zm0-10.667h5.333V-824H136Zm0-10.667h5.333v-5.333H136ZM146.667-808H152v-5.333h-5.333Zm0-10.667H152V-824h-5.333Zm0-10.667H152v-5.333h-5.333Zm10.667,32h5.333v-5.333h-5.333Zm0-10.667h5.333v-5.333h-5.333Z" transform="translate(-120 840)" fill="#fff"/>
</svg>
