<svg xmlns="http://www.w3.org/2000/svg" width="43.2" height="48" viewBox="0 0 43.2 48">
  <path id="calendar_month_24dp_5F6368_FILL1_wght400_GRAD0_opsz24" d="M124.8-832a4.622,4.622,0,0,1-3.39-1.41A4.622,4.622,0,0,1,120-836.8v-33.6a4.622,4.622,0,0,1,1.41-3.39,4.622,4.622,0,0,1,3.39-1.41h2.4v-2.4a2.322,2.322,0,0,1,.69-1.71,2.322,2.322,0,0,1,1.71-.69,2.322,2.322,0,0,1,1.71.69,2.322,2.322,0,0,1,.69,1.71v2.4h19.2v-2.4a2.322,2.322,0,0,1,.69-1.71,2.322,2.322,0,0,1,1.71-.69,2.322,2.322,0,0,1,1.71.69,2.322,2.322,0,0,1,.69,1.71v2.4h2.4a4.622,4.622,0,0,1,3.39,1.41,4.622,4.622,0,0,1,1.41,3.39v33.6a4.622,4.622,0,0,1-1.41,3.39A4.622,4.622,0,0,1,158.4-832Zm0-4.8h33.6v-24H124.8Zm16.8-14.4a2.322,2.322,0,0,1-1.71-.69,2.322,2.322,0,0,1-.69-1.71,2.322,2.322,0,0,1,.69-1.71,2.322,2.322,0,0,1,1.71-.69,2.322,2.322,0,0,1,1.71.69,2.322,2.322,0,0,1,.69,1.71,2.322,2.322,0,0,1-.69,1.71A2.322,2.322,0,0,1,141.6-851.2Zm-9.6,0a2.322,2.322,0,0,1-1.71-.69,2.322,2.322,0,0,1-.69-1.71,2.322,2.322,0,0,1,.69-1.71A2.322,2.322,0,0,1,132-856a2.322,2.322,0,0,1,1.71.69,2.322,2.322,0,0,1,.69,1.71,2.322,2.322,0,0,1-.69,1.71A2.322,2.322,0,0,1,132-851.2Zm19.2,0a2.322,2.322,0,0,1-1.71-.69,2.322,2.322,0,0,1-.69-1.71,2.322,2.322,0,0,1,.69-1.71,2.322,2.322,0,0,1,1.71-.69,2.322,2.322,0,0,1,1.71.69,2.322,2.322,0,0,1,.69,1.71,2.322,2.322,0,0,1-.69,1.71A2.322,2.322,0,0,1,151.2-851.2Zm-9.6,9.6a2.322,2.322,0,0,1-1.71-.69,2.322,2.322,0,0,1-.69-1.71,2.322,2.322,0,0,1,.69-1.71,2.322,2.322,0,0,1,1.71-.69,2.322,2.322,0,0,1,1.71.69A2.322,2.322,0,0,1,144-844a2.322,2.322,0,0,1-.69,1.71A2.322,2.322,0,0,1,141.6-841.6Zm-9.6,0a2.322,2.322,0,0,1-1.71-.69,2.322,2.322,0,0,1-.69-1.71,2.322,2.322,0,0,1,.69-1.71,2.322,2.322,0,0,1,1.71-.69,2.322,2.322,0,0,1,1.71.69,2.322,2.322,0,0,1,.69,1.71,2.322,2.322,0,0,1-.69,1.71A2.322,2.322,0,0,1,132-841.6Zm19.2,0a2.322,2.322,0,0,1-1.71-.69,2.322,2.322,0,0,1-.69-1.71,2.322,2.322,0,0,1,.69-1.71,2.322,2.322,0,0,1,1.71-.69,2.322,2.322,0,0,1,1.71.69,2.322,2.322,0,0,1,.69,1.71,2.322,2.322,0,0,1-.69,1.71A2.322,2.322,0,0,1,151.2-841.6Z" transform="translate(-120 880)" fill="#fff"/>
</svg>
