<svg xmlns="http://www.w3.org/2000/svg" width="57.49" height="48" viewBox="0 0 57.49 48">
  <path id="school_24dp_5F6368_FILL1_wght400_GRAD0_opsz24" d="M135.989-794v-16.229l-22.143,12.034a5.3,5.3,0,0,1-2.613.688,5.3,5.3,0,0,1-2.613-.688L85.375-810.845a2.445,2.445,0,0,1-1.066-1.032A3.031,3.031,0,0,1,84-813.252a3.032,3.032,0,0,1,.309-1.375,2.446,2.446,0,0,1,1.066-1.032l23.244-12.653a5.491,5.491,0,0,1,1.272-.516,5.247,5.247,0,0,1,1.341-.172,5.247,5.247,0,0,1,1.341.172,5.491,5.491,0,0,1,1.272.516l26.2,14.3a2.49,2.49,0,0,1,1.066,1,2.766,2.766,0,0,1,.378,1.41V-794a2.662,2.662,0,0,1-.791,1.96,2.662,2.662,0,0,1-1.96.791,2.662,2.662,0,0,1-1.96-.791A2.662,2.662,0,0,1,135.989-794Zm-27.37,12.31-13.754-7.427a5.432,5.432,0,0,1-2.132-2.063,5.533,5.533,0,0,1-.756-2.82V-804.45l16.642,9.009a5.3,5.3,0,0,0,2.613.688,5.3,5.3,0,0,0,2.613-.688l16.642-9.009V-794a5.533,5.533,0,0,1-.756,2.82,5.432,5.432,0,0,1-2.132,2.063l-13.754,7.427a5.493,5.493,0,0,1-1.272.516,5.249,5.249,0,0,1-1.341.172,5.249,5.249,0,0,1-1.341-.172A5.493,5.493,0,0,1,108.619-781.688Z" transform="translate(-84 829)" fill="#fff"/>
</svg>
